HIERARCHY
ROOT pelvis
{
  OFFSET 0 100 0
  CHANNELS 6 Xposition Yposition Zposition Zrotation Xrotation Yrotation
  JOINT pelvis_right_femur
  {
    OFFSET -10.78128 -3.44521 -0.5502486
    CHANNELS 3 Zrotation Xrotation Yrotation
    JOINT right_femur_tibia
    {
      OFFSET -0.8047443 -44.0398 -0.1307829
      CHANNELS 3 Zrotation Xrotation Yrotation
      JOINT right_tibia_foot
      {
        OFFSET 3.006224 -47.83518 -5
        CHANNELS 3 Zrotation Xrotation Yrotation
        End Site
        {
          OFFSET 0 -5 15
        }
      }
    }
  }
  JOINT pelvis_left_femur
  {
    OFFSET 10.78128 -3.44521 -0.5502486
    CHANNELS 3 Zrotation Xrotation Yrotation
    JOINT left_femur_tibia
    {
      OFFSET 0.8047443 -44.0398 -0.1307829
      CHANNELS 3 Zrotation Xrotation Yrotation
      JOINT left_tibia_foot
      {
        OFFSET -4.370144 -48.10324 -4.275266
        CHANNELS 3 Zrotation Xrotation Yrotation
        End Site
        {
          OFFSET 0 -5 15
        }
      }
    }
  }
  JOINT pelvis_spine1
  {
    OFFSET 0 6.468898 -3.129235
    CHANNELS 3 Zrotation Xrotation Yrotation
    JOINT spine1
    {
      OFFSET 0 23.15396 4.99043
      CHANNELS 3 Zrotation Xrotation Yrotation
      JOINT spine2
      {
        OFFSET 0 20.79997 -5.064912
        CHANNELS 3 Zrotation Xrotation Yrotation
        JOINT neck
        {
          OFFSET 0 14.38658 9.616178
          CHANNELS 3 Zrotation Xrotation Yrotation
          End Site
          {
            OFFSET 0 20 0
          }
        }
      }
      JOINT right_manubrium
      {
        OFFSET -5.722621 16.35077 3.967754
        CHANNELS 3 Zrotation Xrotation Yrotation
        JOINT right_clavicle
        {
          OFFSET -13.16364 1.694482 -4.693211
          CHANNELS 3 Zrotation Xrotation Yrotation
          JOINT right_humerus
          {
            OFFSET -28.5034 -0.3100689 -2.792744
            CHANNELS 3 Zrotation Xrotation Yrotation
            JOINT right_radius
            {
              OFFSET -25.15693 0.02248979 -1.271978
              CHANNELS 3 Zrotation Xrotation Yrotation
              End Site
              {
                OFFSET -15 0 0
              }
            }
          }
        }
      }
      JOINT left_manubrium
      {
        OFFSET 5.722621 16.35077 3.967754
        CHANNELS 3 Zrotation Xrotation Yrotation
        JOINT left_clavicle
        {
          OFFSET 13.16364 1.694482 -4.693211
          CHANNELS 3 Zrotation Xrotation Yrotation
          JOINT left_humerus
          {
            OFFSET 29.39168 -1.063119 -2.237045
            CHANNELS 3 Zrotation Xrotation Yrotation
            JOINT left_radius
            {
              OFFSET 24.59957 -0.9528479 0.9047498
              CHANNELS 3 Zrotation Xrotation Yrotation
              End Site
              {
                OFFSET 15 -0 -0
              }
            }
          }
        }
      }
    }
  }
}
MOTION
Frames: 11
Frame Time: 0.0416666666667
0 103.5113 0 0.8157899 -0.8739877 0.06405338 3.430982 -16.19095 8.740186 -0 38.75306 -0 -6.188639 -15.70797 -2.729352 -7.360098 6.131323 -23.408 -0 4.579832 -0 7.736986 -18.09493 26.60705 -1.969064 -2.001386 4.199567 2.162342 10.01979 -6.760473 0.8113415 22.28888 6.955923 4.555022 -23.9308 7.653217 5.932912 -18.542 11.82375 85.13792 37.31597 -17.252 -0 0 12.81948 -10.23171 8.388455 6.54648 6.316618 -21.5068 -2.775095 -93.1052 22.87241 21.70857 0 0 -15.17093 12.20838 17.16842 -0.2350754
0.382612 103.5765 0.8802097 0.7725012 -0.7797467 0.1351154 3.648504 -18.09737 8.739873 -0 38.64779 -0 -6.282672 -15.18219 -2.968656 -7.325839 7.950893 -23.53616 -0 5.395934 -0 7.694301 -18.50701 26.34044 -1.898874 -2.222354 3.992278 2.388584 10.147 -7.112332 0.7318843 22.19769 7.024185 4.652752 -24.46358 7.701011 6.007273 -18.52929 11.88363 85.97012 37.62481 -18.52862 -0 0 12.1732 -9.323886 8.147507 6.053139 6.448974 -22.09807 -2.864042 -92.99155 22.90637 21.50409 0 0 -16.16544 13.07483 17.58036 -1.064614
0.7216579 103.6266 2.235856 0.7595395 -1.06098 0.3260118 3.494109 -19.94439 7.949201 -0 38.38798 -0 -5.990641 -13.0013 -3.316338 -7.136899 10.03546 -22.52867 -0 6.06272 -0 6.803069 -19.01297 25.11351 -1.904947 -2.107748 3.938236 2.403568 9.997368 -7.195806 0.7850054 22.18455 7.026779 4.518072 -24.33841 7.795797 5.948389 -18.2798 11.79951 86.21373 37.47253 -18.919 -0 0 11.9797 -9.48948 8.401475 6.038341 6.371673 -21.9864 -2.839492 -92.62471 23.53599 20.96434 0 0 -16.88691 12.06822 17.3096 0.1563576
1.006745 103.5668 3.852431 0.6653069 -0.9636356 0.5393914 3.616034 -21.81156 7.313389 -0 36.00521 -0 -6.126338 -12.10799 -3.437167 -6.874991 11.53334 -21.87178 -0 5.946264 -0 6.427353 -19.48431 24.26842 -1.878551 -2.132868 3.855081 2.489954 9.968825 -7.356776 0.7824449 22.13732 7.049767 4.48119 -24.47969 7.860722 5.946325 -18.18317 11.78354 86.60473 37.50342 -19.53251 -0 0 11.71056 -9.243292 8.449043 5.86446 6.365753 -22.12252 -2.852451 -92.4486 23.88743 20.70974 0 0 -17.57224 11.82103 17.32133 0.5424297
1.226945 103.3001 5.838841 0.5233596 -0.8114746 0.7767303 3.747318 -24.0182 6.368452 -0 32.16803 -0 -6.355167 -11.07264 -3.517817 -6.494005 13.14687 -20.86992 -0 5.515759 -0 5.90949 -20.03838 23.10362 -1.863659 -2.113986 3.761503 2.560692 9.900754 -7.508892 0.7976075 22.10405 7.069648 4.415371 -24.53644 7.938219 5.92509 -18.00798 11.74208 87.00132 37.471 -20.1464 -0 0 11.40132 -9.113546 8.556889 5.721205 6.348882 -22.20692 -2.860688 -92.15825 24.32291 20.27365 0 0 -18.33654 11.36975 17.23781 1.150426
1.378791 102.8105 8.220383 0.3675674 -0.6562709 1.03608 3.861139 -26.31954 5.357803 -0 27.99778 -0 -6.607455 -9.997636 -3.59599 -6.110108 14.81684 -19.79148 -0 5.169615 -0 5.328347 -20.58419 21.84398 -1.848384 -2.109623 3.660588 2.635575 9.849542 -7.663633 0.8063358 22.07356 7.091735 4.366602 -24.61069 8.007294 5.91018 -17.84229 11.70804 87.40889 37.45342 -20.76896 -0 0 11.07027 -8.950573 8.631238 5.564125 6.348668 -22.32419 -2.876664 -91.87563 24.68523 19.84141 0 0 -19.06796 11.05792 17.18817 1.591066
1.464687 102.0848 11.10762 0.2091685 -0.5955639 1.3287 3.872495 -28.58584 4.153116 -0 23.60341 -0 -6.797126 -8.585885 -3.700517 -5.722795 16.52235 -18.42518 -0 5.086433 -0 4.498993 -21.0693 20.31778 -1.84175 -2.088004 3.538649 2.705325 9.786627 -7.818836 0.8213141 22.05742 7.114948 4.315178 -24.64076 8.077668 5.887961 -17.6198 11.66192 87.84441 37.40741 -21.4194 -0 0 10.66848 -8.834656 8.713465 5.409865 6.361499 -22.44521 -2.89899 -91.50328 25.02997 19.25507 0 0 -19.84049 10.75362 17.10686 2.005309
1.496581 101.1463 14.61339 0.06950735 -0.7024174 1.665294 3.749976 -30.51126 2.807558 -0 19.45498 -0 -6.861615 -6.80899 -3.850341 -5.374353 18.08673 -16.76908 -0 5.583388 -0 3.374807 -21.3705 18.56049 -1.844042 -2.052855 3.405615 2.76464 9.719401 -7.96173 0.8404425 22.05698 7.137556 4.267248 -24.62698 8.142534 5.861298 -17.36145 11.60874 88.27109 37.33931 -22.04274 -0 0 10.22893 -8.770944 8.793099 5.269955 6.387797 -22.56323 -2.926415 -91.07534 25.3189 18.56726 0 0 -20.58473 10.49726 17.00608 2.340838
1.494394 100.0588 18.84953 -0.03358333 -1.046414 2.049747 3.513138 -31.76843 1.399948 -0 15.90601 -0 -6.758382 -4.687879 -4.066563 -5.085207 19.29228 -14.81322 -0 7.107276 -0 1.91885 -21.32837 16.6157 -1.857989 -1.996538 3.258794 2.809739 9.642562 -8.088911 0.866567 22.07647 7.158962 4.219678 -24.55168 8.202462 5.827158 -17.05238 11.54446 88.68606 37.23884 -22.63248 -0 0 9.741779 -8.782841 8.877648 5.151177 6.428223 -22.67102 -2.959128 -90.57075 25.55098 17.74127 0 0 -21.30434 10.27137 16.87172 2.61228
1.482583 98.94471 23.87409 -0.08348989 -1.665636 2.468168 3.272172 -32.00738 0.1412207 -0 13.36535 -0 -6.483605 -2.427445 -4.365256 -4.859942 19.86589 -12.67585 -0 10.22362 -0 0.1990119 -20.75984 14.65439 -1.882908 -1.920797 3.107311 2.836939 9.559747 -8.191823 0.8988178 22.11519 7.177447 4.174009 -24.41579 8.25407 5.78658 -16.70945 11.4723 89.06232 37.10923 -23.15007 -0 0 9.236875 -8.875427 8.964883 5.063003 6.479581 -22.75966 -2.995146 -90.01839 25.71184 16.82303 0 0 -21.95671 10.08141 16.70859 2.811998
1.481314 97.98537 29.65277 -0.07412973 -2.554766 2.879857 3.203655 -30.95852 -0.6910171 -0 12.09962 -0 -6.084929 -0.3722713 -4.747021 -4.666083 19.54483 -10.56206 -0 15.51944 -0 -1.635674 -19.50626 12.9223 -1.916301 -1.828989 2.970951 2.840549 9.475679 -8.256225 0.9358404 22.16882 7.189689 4.1302 -24.22584 8.293251 5.741283 -16.36831 11.39818 89.35067 36.95781 -23.52814 -0 0 8.778957 -9.053989 9.055507 5.022349 6.531313 -22.80808 -3.028736 -89.47807 25.79883 15.91329 0 0 -22.47217 9.909516 16.52199 2.963235
